<svg width="76" height="40" viewBox="0 0 76 40" fill="none" xmlns="http://www.w3.org/2000/svg">
<rect x="0.5" y="0.5" width="75" height="39" rx="1.5" fill="white"/>
<path d="M12.99 20.1C12.99 19.1387 13.2047 18.28 13.634 17.524C14.0727 16.7587 14.6653 16.166 15.412 15.746C16.168 15.3167 17.0127 15.102 17.946 15.102C19.038 15.102 19.9947 15.382 20.816 15.942C21.6373 16.502 22.2113 17.2767 22.538 18.266H20.284C20.06 17.7993 19.7427 17.4493 19.332 17.216C18.9307 16.9827 18.464 16.866 17.932 16.866C17.3627 16.866 16.854 17.0013 16.406 17.272C15.9673 17.5333 15.622 17.9067 15.37 18.392C15.1273 18.8773 15.006 19.4467 15.006 20.1C15.006 20.744 15.1273 21.3133 15.37 21.808C15.622 22.2933 15.9673 22.6713 16.406 22.942C16.854 23.2033 17.3627 23.334 17.932 23.334C18.464 23.334 18.9307 23.2173 19.332 22.984C19.7427 22.7413 20.06 22.3867 20.284 21.92H22.538C22.2113 22.9187 21.6373 23.698 20.816 24.258C20.004 24.8087 19.0473 25.084 17.946 25.084C17.0127 25.084 16.168 24.874 15.412 24.454C14.6653 24.0247 14.0727 23.432 13.634 22.676C13.2047 21.92 12.99 21.0613 12.99 20.1ZM23.7081 21.094C23.7081 20.31 23.8621 19.6147 24.1701 19.008C24.4874 18.4013 24.9121 17.9347 25.4441 17.608C25.9854 17.2813 26.5874 17.118 27.2501 17.118C27.8288 17.118 28.3328 17.2347 28.7621 17.468C29.2008 17.7013 29.5508 17.9953 29.8121 18.35V17.244H31.7861V25H29.8121V23.866C29.5601 24.23 29.2101 24.5333 28.7621 24.776C28.3234 25.0093 27.8148 25.126 27.2361 25.126C26.5828 25.126 25.9854 24.958 25.4441 24.622C24.9121 24.286 24.4874 23.8147 24.1701 23.208C23.8621 22.592 23.7081 21.8873 23.7081 21.094ZM29.8121 21.122C29.8121 20.646 29.7188 20.24 29.5321 19.904C29.3454 19.5587 29.0934 19.2973 28.7761 19.12C28.4588 18.9333 28.1181 18.84 27.7541 18.84C27.3901 18.84 27.0541 18.9287 26.7461 19.106C26.4381 19.2833 26.1861 19.5447 25.9901 19.89C25.8034 20.226 25.7101 20.6273 25.7101 21.094C25.7101 21.5607 25.8034 21.9713 25.9901 22.326C26.1861 22.6713 26.4381 22.9373 26.7461 23.124C27.0634 23.3107 27.3994 23.404 27.7541 23.404C28.1181 23.404 28.4588 23.3153 28.7761 23.138C29.0934 22.9513 29.3454 22.69 29.5321 22.354C29.7188 22.0087 29.8121 21.598 29.8121 21.122ZM37.9984 17.132C38.9224 17.132 39.669 17.426 40.2384 18.014C40.8077 18.5927 41.0924 19.4047 41.0924 20.45V25H39.1324V20.716C39.1324 20.1 38.9784 19.6287 38.6704 19.302C38.3624 18.966 37.9424 18.798 37.4104 18.798C36.869 18.798 36.4397 18.966 36.1224 19.302C35.8144 19.6287 35.6604 20.1 35.6604 20.716V25H33.7004V17.244H35.6604V18.21C35.9217 17.874 36.253 17.6127 36.6544 17.426C37.065 17.23 37.513 17.132 37.9984 17.132ZM42.4522 21.122C42.4522 20.3193 42.6156 19.6193 42.9422 19.022C43.2689 18.4153 43.7216 17.9487 44.3002 17.622C44.8789 17.286 45.5416 17.118 46.2882 17.118C47.2496 17.118 48.0429 17.3607 48.6682 17.846C49.3029 18.322 49.7276 18.994 49.9422 19.862H47.8282C47.7162 19.526 47.5249 19.2647 47.2542 19.078C46.9929 18.882 46.6662 18.784 46.2742 18.784C45.7142 18.784 45.2709 18.9893 44.9442 19.4C44.6176 19.8013 44.4542 20.3753 44.4542 21.122C44.4542 21.8593 44.6176 22.4333 44.9442 22.844C45.2709 23.2453 45.7142 23.446 46.2742 23.446C47.0676 23.446 47.5856 23.0913 47.8282 22.382H49.9422C49.7276 23.222 49.3029 23.8893 48.6682 24.384C48.0336 24.8787 47.2402 25.126 46.2882 25.126C45.5416 25.126 44.8789 24.9627 44.3002 24.636C43.7216 24.3 43.2689 23.8333 42.9422 23.236C42.6156 22.6293 42.4522 21.9247 42.4522 21.122ZM58.5881 20.954C58.5881 21.234 58.5694 21.486 58.5321 21.71H52.8621C52.9088 22.27 53.1048 22.7087 53.4501 23.026C53.7954 23.3433 54.2201 23.502 54.7241 23.502C55.4521 23.502 55.9701 23.1893 56.2781 22.564H58.3921C58.1681 23.3107 57.7388 23.9267 57.1041 24.412C56.4694 24.888 55.6901 25.126 54.7661 25.126C54.0194 25.126 53.3474 24.9627 52.7501 24.636C52.1621 24.3 51.7001 23.8287 51.3641 23.222C51.0374 22.6153 50.8741 21.9153 50.8741 21.122C50.8741 20.3193 51.0374 19.6147 51.3641 19.008C51.6908 18.4013 52.1481 17.9347 52.7361 17.608C53.3241 17.2813 54.0008 17.118 54.7661 17.118C55.5034 17.118 56.1614 17.2767 56.7401 17.594C57.3281 17.9113 57.7808 18.364 58.0981 18.952C58.4248 19.5307 58.5881 20.198 58.5881 20.954ZM56.5581 20.394C56.5488 19.89 56.3668 19.4887 56.0121 19.19C55.6574 18.882 55.2234 18.728 54.7101 18.728C54.2248 18.728 53.8141 18.8773 53.4781 19.176C53.1514 19.4653 52.9508 19.8713 52.8761 20.394H56.5581ZM61.9787 14.64V25H60.0187V14.64H61.9787Z" fill="#8C99AF"/>
<rect x="0.5" y="0.5" width="75" height="39" rx="1.5" stroke="#8C99AF"/>
</svg>
