<svg width="100" height="40" viewBox="0 0 100 40" fill="none" xmlns="http://www.w3.org/2000/svg">
<rect width="100" height="40" rx="2" fill="#05A3AD"/>
<g clip-path="url(#clip0_156_40391)">
<path d="M38.2433 15.7148L37.5 16.3837V16.3837L38.2433 15.7148ZM34.2979 11.331L33.5546 12L33.5546 12L34.2979 11.331ZM21.5 30H37.5V28H21.5V30ZM39.5 28V16.3837H37.5V28H39.5ZM38.9866 15.0458L35.0412 10.6621L33.5546 12L37.5 16.3837L38.9866 15.0458ZM33.5546 10H21.5V12H33.5546V10ZM19.5 12V28H21.5V12H19.5ZM21.5 10C20.3954 10 19.5 10.8954 19.5 12H21.5H21.5V10ZM35.0412 10.6621C34.6619 10.2406 34.1216 10 33.5546 10V12L33.5546 12L35.0412 10.6621ZM39.5 16.3837C39.5 15.8897 39.3171 15.4131 38.9866 15.0458L37.5 16.3837V16.3837H39.5ZM37.5 30C38.6046 30 39.5 29.1046 39.5 28H37.5V30ZM21.5 28H19.5C19.5 29.1046 20.3954 30 21.5 30V28Z" fill="white"/>
<path d="M34.5 29V30C35.0523 30 35.5 29.5523 35.5 29H34.5ZM24.5 29H23.5C23.5 29.5523 23.9477 30 24.5 30V29ZM25.5 23H33.5V21H25.5V23ZM33.5 23V29H35.5V23H33.5ZM34.5 28H24.5V30H34.5V28ZM25.5 29V23H23.5V29H25.5ZM33.5 23H35.5C35.5 21.8954 34.6046 21 33.5 21V23ZM25.5 21C24.3954 21 23.5 21.8954 23.5 23H25.5V23V21Z" fill="white"/>
<path d="M32.5 16C33.0523 16 33.5 15.5523 33.5 15C33.5 14.4477 33.0523 14 32.5 14V16ZM26.5 14C25.9477 14 25.5 14.4477 25.5 15C25.5 15.5523 25.9477 16 26.5 16V14ZM32.5 14H26.5V16H32.5V14Z" fill="white"/>
</g>
<path d="M50.84 25.098C50.1587 25.098 49.5427 24.9813 48.992 24.748C48.4507 24.5147 48.0213 24.1787 47.704 23.74C47.3867 23.3013 47.2233 22.7833 47.214 22.186H49.314C49.342 22.5873 49.482 22.9047 49.734 23.138C49.9953 23.3713 50.35 23.488 50.798 23.488C51.2553 23.488 51.6147 23.3807 51.876 23.166C52.1373 22.942 52.268 22.6527 52.268 22.298C52.268 22.0087 52.1793 21.7707 52.002 21.584C51.8247 21.3973 51.6007 21.2527 51.33 21.15C51.0687 21.038 50.7047 20.9167 50.238 20.786C49.6033 20.5993 49.0853 20.4173 48.684 20.24C48.292 20.0533 47.9513 19.778 47.662 19.414C47.382 19.0407 47.242 18.546 47.242 17.93C47.242 17.3513 47.3867 16.8473 47.676 16.418C47.9653 15.9887 48.3713 15.662 48.894 15.438C49.4167 15.2047 50.014 15.088 50.686 15.088C51.694 15.088 52.5107 15.3353 53.136 15.83C53.7707 16.3153 54.1207 16.9967 54.186 17.874H52.03C52.0113 17.538 51.8667 17.2627 51.596 17.048C51.3347 16.824 50.9847 16.712 50.546 16.712C50.1633 16.712 49.8553 16.81 49.622 17.006C49.398 17.202 49.286 17.4867 49.286 17.86C49.286 18.1213 49.37 18.3407 49.538 18.518C49.7153 18.686 49.93 18.826 50.182 18.938C50.4433 19.0407 50.8073 19.162 51.274 19.302C51.9087 19.4887 52.4267 19.6753 52.828 19.862C53.2293 20.0487 53.5747 20.3287 53.864 20.702C54.1533 21.0753 54.298 21.5653 54.298 22.172C54.298 22.6947 54.1627 23.18 53.892 23.628C53.6213 24.076 53.2247 24.4353 52.702 24.706C52.1793 24.9673 51.5587 25.098 50.84 25.098ZM55.4932 21.094C55.4932 20.31 55.6472 19.6147 55.9552 19.008C56.2726 18.4013 56.6973 17.9347 57.2293 17.608C57.7706 17.2813 58.3726 17.118 59.0353 17.118C59.6139 17.118 60.1179 17.2347 60.5473 17.468C60.9859 17.7013 61.3359 17.9953 61.5973 18.35V17.244H63.5713V25H61.5973V23.866C61.3453 24.23 60.9953 24.5333 60.5473 24.776C60.1086 25.0093 59.5999 25.126 59.0213 25.126C58.3679 25.126 57.7706 24.958 57.2293 24.622C56.6973 24.286 56.2726 23.8147 55.9552 23.208C55.6472 22.592 55.4932 21.8873 55.4932 21.094ZM61.5973 21.122C61.5973 20.646 61.5039 20.24 61.3173 19.904C61.1306 19.5587 60.8786 19.2973 60.5613 19.12C60.2439 18.9333 59.9033 18.84 59.5393 18.84C59.1753 18.84 58.8393 18.9287 58.5312 19.106C58.2233 19.2833 57.9713 19.5447 57.7753 19.89C57.5886 20.226 57.4953 20.6273 57.4953 21.094C57.4953 21.5607 57.5886 21.9713 57.7753 22.326C57.9713 22.6713 58.2233 22.9373 58.5312 23.124C58.8486 23.3107 59.1846 23.404 59.5393 23.404C59.9033 23.404 60.2439 23.3153 60.5613 23.138C60.8786 22.9513 61.1306 22.69 61.3173 22.354C61.5039 22.0087 61.5973 21.598 61.5973 21.122ZM68.7195 23.194L70.6795 17.244H72.7655L69.8955 25H67.5155L64.6595 17.244H66.7595L68.7195 23.194ZM81.0764 20.954C81.0764 21.234 81.0577 21.486 81.0204 21.71H75.3504C75.3971 22.27 75.5931 22.7087 75.9384 23.026C76.2837 23.3433 76.7084 23.502 77.2124 23.502C77.9404 23.502 78.4584 23.1893 78.7664 22.564H80.8804C80.6564 23.3107 80.2271 23.9267 79.5924 24.412C78.9577 24.888 78.1784 25.126 77.2544 25.126C76.5077 25.126 75.8357 24.9627 75.2384 24.636C74.6504 24.3 74.1884 23.8287 73.8524 23.222C73.5257 22.6153 73.3624 21.9153 73.3624 21.122C73.3624 20.3193 73.5257 19.6147 73.8524 19.008C74.1791 18.4013 74.6364 17.9347 75.2244 17.608C75.8124 17.2813 76.4891 17.118 77.2544 17.118C77.9917 17.118 78.6497 17.2767 79.2284 17.594C79.8164 17.9113 80.2691 18.364 80.5864 18.952C80.9131 19.5307 81.0764 20.198 81.0764 20.954ZM79.0464 20.394C79.0371 19.89 78.8551 19.4887 78.5004 19.19C78.1457 18.882 77.7117 18.728 77.1984 18.728C76.7131 18.728 76.3024 18.8773 75.9664 19.176C75.6397 19.4653 75.4391 19.8713 75.3644 20.394H79.0464Z" fill="white"/>
<defs>
<clipPath id="clip0_156_40391">
<rect width="24" height="24" fill="white" transform="translate(17.5 8)"/>
</clipPath>
</defs>
</svg>
